<?xml version="1.0" encoding="utf-8"?>
<!-- Generator: Adobe Illustrator 22.1.0, SVG Export Plug-In . SVG Version: 6.00 Build 0)  -->
<svg version="1.0" id="Layer_1" xmlns="http://www.w3.org/2000/svg" xmlns:xlink="http://www.w3.org/1999/xlink" x="0px" y="0px"
	 width="400px" height="400px" viewBox="0 0 400 400" enable-background="new 0 0 400 400" xml:space="preserve">
<g>
	<path fill="#156CB3" d="M237.7,127.4c-4.4-4.2-8.9-8.4-13.3-12.6c-8.1,6.1-17.2,12.7-19.6,23.2c-3.7,18.3,15.5,36.7,33.7,32.2
		c9.1-1.5,23.2-5.7,26.3,6.8c-0.9,11.1-13.9,13.1-22.7,14.4c4.8,4.4,9.4,8.9,14.1,13.4c11.1-4.6,23.2-12.1,25.2-25
		c1.9-16.9-15.8-32.9-32.4-29.3c-9.8,0.6-23.9,7.9-29.3-4.3C218.6,135.2,229.9,131.4,237.7,127.4z"/>
	<path fill="#156CB3" d="M0,0l138.5,138.5l74.2-107.2l155.9,155.9l-107.2,74.2L400,400V0H0z M366.6,141.1
		c-3.1,6.5-9.2,11.2-16.3,12.5l-26.2-26.2c2.3-12.5,14.9-20.7,27.2-17.8c0.8-3.6,1.2-7.3,1.2-11.1c0-6.4-1.2-12.6-3.4-18.5
		c-3.6,1.4-7.5,1.9-11.3,1.4c-6.9-0.9-13.1-5-16.6-11c-3.4-5.9-4-13.3-1.4-19.6c-5.8-2.2-12-3.4-18.5-3.4c-3.8,0-7.5,0.4-11.1,1.2
		c2.9,12.3-5.4,24.9-17.8,27.2l-26.2-26.2c0.8-4.1,2.7-8,5.5-11.1c4.4-4.8,10.9-7.5,17.4-7.3c6.8,0.2,13.2,3.6,17.2,9
		c4.8-1.2,9.8-1.9,14.9-1.9c8.2,0,16.2,1.7,23.6,4.8c3.7-3.7,8.6-5.9,13.8-6.4c9.3-0.8,18.4,4.4,22.3,12.8c4,8.4,2.2,18.7-4.3,25.4
		c5.1,12.1,6.2,25.8,2.9,38.5c3.2,2.4,5.7,5.6,7.2,9.2C369.4,128.5,369.3,135.3,366.6,141.1z"/>
</g>
</svg>
